<svg width="419" height="198" viewBox="0 0 419 198" fill="none" xmlns="http://www.w3.org/2000/svg">
<path d="M0 116.5V185.5C1.66667 188.333 7.4 194 17 194C29 194 171 198 215.5 198C260 198 391 192 403.5 191.5C413.5 191.1 417.667 184.667 418.5 181.5L416 112.5L378.5 22.5C376.5 17 365.1 13.5 357.5 11.5C348 9 331.5 7 307 4.5C282.5 2 230.5 0 205.5 0C180.5 0 149 2 120 4.5C91 7 67.5 11.5 56.5 14C47.7 16 35.5 20 32 26L0 116.5Z" fill="white"/>
<path d="M6 122C0.5 121.083 1.33333 117.833 0.5 116C19.3333 112 62.6 102.7 85 97.5C113 91 171 88 210 87.5C249 87 266.5 89 302 92.5C330.4 95.3 389.833 109.333 416 116C414.5 117.167 417.5 122 406.5 122C400.91 122 245 125 210 125.5C175 126 9 122.5 6 122Z" fill="#BFBFBF"/>
<path d="M5.99997 122C0.499973 121.083 0.5 117 0.5 117C42.5 114.5 64.0226 113.837 79.5 113C116.5 111 171 111.5 210 111C249 110.5 263.5 112 301 112C329.538 112 395 116 416 116C416 116 417.5 122 406.5 122C400.91 122 245 125 210 125.5C175 126 8.99997 122.5 5.99997 122Z" fill="#7C7C7C"/>
<rect x="161" y="126" width="7" height="25" fill="black"/>
<rect x="183" y="126" width="7" height="25" fill="black"/>
<rect x="227" y="126" width="7" height="25" fill="black"/>
<rect x="205" y="126" width="7" height="25" fill="black"/>
<rect x="249" y="126" width="7" height="25" fill="black"/>
</svg>
