<svg width="419" height="325" viewBox="0 0 419 325" fill="none" xmlns="http://www.w3.org/2000/svg">
<path d="M0 243.5V312.5C1.66667 315.333 7.4 321 17 321C29 321 171 325 215.5 325C260 325 391 319 403.5 318.5C413.5 318.1 417.667 311.667 418.5 308.5L416 239.5L378.5 149.5C376.5 144 365.1 140.5 357.5 138.5C348 136 331.5 134 307 131.5C282.5 129 230.5 127 205.5 127C180.5 127 149 129 120 131.5C91 134 67.5 138.5 56.5 141C47.7 143 35.5 147 32 153L0 243.5Z" fill="white"/>
<path d="M6 249C0.5 248.083 1.33333 244.833 0.5 243C19.3333 239 62.6 229.7 85 224.5C113 218 171 215 210 214.5C249 214 266.5 216 302 219.5C330.4 222.3 389.833 236.333 416 243C414.5 244.167 417.5 249 406.5 249C400.91 249 245 252 210 252.5C175 253 9 249.5 6 249Z" fill="#BFBFBF"/>
<path d="M5.99997 249C0.499973 248.083 0.5 244 0.5 244C42.5 241.5 64.0226 240.837 79.5 240C116.5 238 171 238.5 210 238C249 237.5 263.5 239 301 239C329.538 239 395 243 416 243C416 243 417.5 249 406.5 249C400.91 249 245 252 210 252.5C175 253 8.99997 249.5 5.99997 249Z" fill="#7C7C7C"/>
<rect x="161" y="253" width="7" height="25" fill="black"/>
<rect x="183" y="253" width="7" height="25" fill="black"/>
<rect x="227" y="253" width="7" height="25" fill="black"/>
<rect x="205" y="253" width="7" height="25" fill="black"/>
<rect x="249" y="253" width="7" height="25" fill="black"/>
<circle cx="205" cy="92" r="92" fill="#E32B2B"/>
<path d="M208.133 120.852H208.158" stroke="white" stroke-width="8" stroke-linecap="round" stroke-linejoin="round"/>
<path d="M187.251 107.411C192.444 102.247 199.485 99.3455 206.827 99.3455C214.169 99.3455 221.21 102.247 226.403 107.411" stroke="white" stroke-width="8" stroke-linecap="round" stroke-linejoin="round"/>
<path d="M174.201 93.9662C178.486 89.7043 183.572 86.3237 189.17 84.0172C194.768 81.7107 200.768 80.5235 206.827 80.5235C212.887 80.5235 218.886 81.7107 224.484 84.0172C230.082 86.3237 235.169 89.7043 239.453 93.9662" stroke="white" stroke-width="8" stroke-linecap="round" stroke-linejoin="round"/>
<path d="M162.507 78.5076C186.969 49.83 226.632 49.83 251.25 78.5076" stroke="white" stroke-width="8" stroke-linecap="round" stroke-linejoin="round"/>
</svg>
